<svg width="136" height="136" viewBox="0 0 136 136" fill="none" xmlns="http://www.w3.org/2000/svg">
<path d="M58.48 99.28L106.42 51.34L96.9 41.82L58.48 80.24L39.1 60.86L29.58 70.38L58.48 99.28ZM68 136C58.5933 136 49.7533 134.215 41.48 130.645C33.2067 127.075 26.01 122.23 19.89 116.11C13.77 109.99 8.925 102.793 5.355 94.52C1.785 86.2467 0 77.4067 0 68C0 58.5933 1.785 49.7533 5.355 41.48C8.925 33.2067 13.77 26.01 19.89 19.89C26.01 13.77 33.2067 8.925 41.48 5.355C49.7533 1.785 58.5933 0 68 0C77.4067 0 86.2467 1.785 94.52 5.355C102.793 8.925 109.99 13.77 116.11 19.89C122.23 26.01 127.075 33.2067 130.645 41.48C134.215 49.7533 136 58.5933 136 68C136 77.4067 134.215 86.2467 130.645 94.52C127.075 102.793 122.23 109.99 116.11 116.11C109.99 122.23 102.793 127.075 94.52 130.645C86.2467 134.215 77.4067 136 68 136ZM68 122.4C83.1867 122.4 96.05 117.13 106.59 106.59C117.13 96.05 122.4 83.1867 122.4 68C122.4 52.8133 117.13 39.95 106.59 29.41C96.05 18.87 83.1867 13.6 68 13.6C52.8133 13.6 39.95 18.87 29.41 29.41C18.87 39.95 13.6 52.8133 13.6 68C13.6 83.1867 18.87 96.05 29.41 106.59C39.95 117.13 52.8133 122.4 68 122.4Z" fill="#FAD683"/>
</svg>
