<svg width="47" height="30" viewBox="0 0 47 30" fill="none" xmlns="http://www.w3.org/2000/svg">
<path d="M0 30V19.3238H4.27046V25.7295H42.7046V19.3238H46.9751V30H0ZM18.2562 21.4057V19.5907H18.0961C17.6335 20.3025 17.0107 20.863 16.2278 21.2722C15.4448 21.6815 14.5552 21.8861 13.5587 21.8861C11.8149 21.8861 10.4448 21.4324 9.4484 20.5249C8.45196 19.6174 7.95374 18.3808 7.95374 16.8149C7.95374 15.3203 8.53203 14.1014 9.68861 13.1584C10.8452 12.2153 12.331 11.7438 14.1459 11.7438C14.9644 11.7438 15.7206 11.806 16.4146 11.9306C17.1085 12.0552 17.7046 12.2598 18.2028 12.5445V11.7972C18.2028 10.8363 17.8737 10.0712 17.2153 9.50178C16.5569 8.93238 15.6584 8.64769 14.5196 8.64769C13.7722 8.64769 13.0694 8.80783 12.411 9.12811C11.7527 9.4484 11.1922 9.91103 10.7295 10.516L8.43416 8.80783C9.11032 7.84697 9.96441 7.11744 10.9964 6.61922C12.0285 6.121 13.2206 5.87189 14.573 5.87189C16.7794 5.87189 18.4697 6.3968 19.6441 7.44662C20.8185 8.49644 21.4057 10.0178 21.4057 12.0107V21.4057H18.2562ZM14.7331 14.2527C13.5943 14.2527 12.7224 14.4751 12.1174 14.9199C11.5125 15.3648 11.21 15.9964 11.21 16.8149C11.21 17.5267 11.4769 18.105 12.0107 18.5498C12.5445 18.9947 13.2384 19.2171 14.0925 19.2171C15.2313 19.2171 16.2011 18.8167 17.0018 18.016C17.8025 17.2153 18.2028 16.2456 18.2028 15.1068C17.7046 14.8221 17.1352 14.6085 16.4947 14.4662C15.8541 14.3238 15.2669 14.2527 14.7331 14.2527ZM24.6085 21.4057V0H27.9181V6.03203L27.758 8.16726H27.9181C28.0249 7.98932 28.452 7.53559 29.1993 6.80605C29.9466 6.07651 31.121 5.71174 32.7224 5.71174C35 5.71174 36.7972 6.53025 38.1139 8.16726C39.4306 9.80427 40.089 11.6904 40.089 13.8256C40.089 15.9609 39.4395 17.8381 38.1406 19.4573C36.8416 21.0765 35.0356 21.8861 32.7224 21.8861C31.2633 21.8861 30.1512 21.5658 29.3861 20.9253C28.621 20.2847 28.1317 19.7865 27.9181 19.4306H27.758V21.4057H24.6085ZM32.242 8.70107C30.8185 8.70107 29.7153 9.22598 28.9324 10.2758C28.1495 11.3256 27.758 12.4911 27.758 13.7722C27.758 15.089 28.1495 16.2633 28.9324 17.2954C29.7153 18.3274 30.8185 18.8434 32.242 18.8434C33.6655 18.8434 34.7776 18.3274 35.5783 17.2954C36.379 16.2633 36.7794 15.089 36.7794 13.7722C36.7794 12.4555 36.379 11.2811 35.5783 10.2491C34.7776 9.21708 33.6655 8.70107 32.242 8.70107Z" fill="#FAD683"/>
</svg>
