<svg width="33" height="40" viewBox="0 0 33 40" fill="none" xmlns="http://www.w3.org/2000/svg">
<path d="M10.9091 36.3636H3.63636C2.63636 36.3636 1.7803 36.0076 1.06818 35.2955C0.356061 34.5833 0 33.7273 0 32.7273V7.27273C0 6.27273 0.356061 5.41667 1.06818 4.70455C1.7803 3.99242 2.63636 3.63636 3.63636 3.63636H10.9091V7.27273H3.63636V32.7273H10.9091V36.3636ZM14.5455 40V0H18.1818V40H14.5455ZM29.0909 7.27273V3.63636C30.0909 3.63636 30.947 3.99242 31.6591 4.70455C32.3712 5.41667 32.7273 6.27273 32.7273 7.27273H29.0909ZM29.0909 21.8182V18.1818H32.7273V21.8182H29.0909ZM29.0909 36.3636V32.7273H32.7273C32.7273 33.7273 32.3712 34.5833 31.6591 35.2955C30.947 36.0076 30.0909 36.3636 29.0909 36.3636ZM29.0909 14.5455V10.9091H32.7273V14.5455H29.0909ZM29.0909 29.0909V25.4545H32.7273V29.0909H29.0909ZM21.8182 36.3636V32.7273H25.4545V36.3636H21.8182ZM21.8182 7.27273V3.63636H25.4545V7.27273H21.8182Z" fill="#662401"/>
</svg>
